<svg xmlns="http://www.w3.org/2000/svg" xmlns:xlink="http://www.w3.org/1999/xlink" viewBox="0 0 64 64"><defs><linearGradient id="q"><stop offset="0" stop-color="#e6e5ec"/><stop offset="1" stop-color="#b3b2c2"/></linearGradient><linearGradient id="p"><stop offset="0" stop-color="#cabde4"/><stop offset="1" stop-color="#f0eff3"/></linearGradient><linearGradient id="o"><stop offset="0" stop-color="#a389d5"/><stop offset="1" stop-color="#edecf2"/></linearGradient><linearGradient id="n"><stop offset="0" stop-color="#70678d"/><stop offset="1" stop-color="#b997f3"/></linearGradient><linearGradient id="m"><stop offset="0" stop-color="#9384a9"/><stop offset="1" stop-color="#665e85"/></linearGradient><linearGradient id="l"><stop offset="0" stop-color="#fff"/><stop offset="1" stop-color="#513975"/></linearGradient><linearGradient id="k"><stop offset="0" stop-color="#bfbdcb"/><stop offset="1" stop-color="#9892b0"/></linearGradient><linearGradient xlink:href="#a" id="t" x1="405.68" x2="412.165" y1="2.619" y2="14.716" gradientUnits="userSpaceOnUse"/><linearGradient id="a"><stop offset="0" stop-color="#8b98ad"/><stop offset="1" stop-color="#ccb3f5"/></linearGradient><linearGradient xlink:href="#b" id="u" x1="405.641" x2="394.707" y1="2.469" y2="12.346" gradientUnits="userSpaceOnUse"/><linearGradient id="b"><stop offset="0" stop-color="#8a86a1"/><stop offset="1" stop-color="#d1b6f6"/></linearGradient><linearGradient xlink:href="#c" id="v" x1="409.172" x2="415.407" y1="6.859" y2="-.187" gradientUnits="userSpaceOnUse"/><linearGradient id="c"><stop offset="0" stop-color="#9891af"/><stop offset="1" stop-color="#8a97ad"/></linearGradient><linearGradient xlink:href="#d" id="w" x1="407.239" x2="402.874" y1="3.055" y2="-5.3" gradientUnits="userSpaceOnUse"/><linearGradient id="d"><stop offset="0" stop-color="#8b86a2"/><stop offset="1" stop-color="#d4baf6"/></linearGradient><linearGradient xlink:href="#e" id="x" x1="65.445" x2="63.299" y1="11.787" y2="49.271" gradientTransform="rotate(-90 20.264 7.613)scale(.24599)" gradientUnits="userSpaceOnUse"/><linearGradient id="e"><stop offset="0" stop-color="#fff"/><stop offset="1" stop-color="#84819b"/></linearGradient><linearGradient xlink:href="#f" id="y" x1="412.289" x2="423.389" y1="-9.727" y2="-9.104" gradientTransform="translate(-357.31 19.28)scale(.92448)" gradientUnits="userSpaceOnUse"/><linearGradient id="f"><stop offset="0" stop-color="#fff"/><stop offset="1" stop-color="#ab7eee" stop-opacity="0"/></linearGradient><linearGradient xlink:href="#h" id="r" x1="391.026" x2="407.8" y1="2.993" y2="15.838" gradientTransform="translate(-354.604 16.012)scale(.92448)" gradientUnits="userSpaceOnUse"/><linearGradient id="h"><stop offset="0" stop-color="#e8e6ed"/><stop offset="1" stop-color="#9892b0"/></linearGradient><linearGradient xlink:href="#i" id="B" x1="48.634" x2="105.482" y1="40.131" y2="24.899" gradientTransform="matrix(-.24599 0 0 .24599 27.553 12.322)" gradientUnits="userSpaceOnUse"/><linearGradient id="i"><stop offset="0" stop-color="#9a93b2"/><stop offset="1" stop-color="#fff"/></linearGradient><linearGradient xlink:href="#f" id="C" x1="422.575" x2="407.521" y1="-8.144" y2="-13.367" gradientTransform="rotate(181.952 200.051 14.725)scale(.92448)" gradientUnits="userSpaceOnUse"/><linearGradient xlink:href="#h" id="z" x1="391.026" x2="407.8" y1="2.993" y2="15.838" gradientTransform="translate(-354.612 16.084)scale(.92448)" gradientUnits="userSpaceOnUse"/><linearGradient xlink:href="#k" id="s" x1="402.94" x2="428.569" y1="-3.936" y2="8.433" gradientTransform="translate(-354.604 16.012)scale(.92448)" gradientUnits="userSpaceOnUse"/><linearGradient xlink:href="#l" id="I" x1="468.522" x2="474.45" y1="-1.231" y2="-17.443" gradientTransform="rotate(56.422 213.901 -367.4)scale(.92448)" gradientUnits="userSpaceOnUse"/><linearGradient xlink:href="#m" id="G" x1="471.214" x2="488.747" y1="-7.932" y2="-5.112" gradientTransform="rotate(56.422 213.901 -367.4)scale(.92448)" gradientUnits="userSpaceOnUse"/><linearGradient xlink:href="#n" id="F" x1="476.338" x2="490.738" y1="6.99" y2="20.959" gradientTransform="rotate(56.422 213.901 -367.4)scale(.92448)" gradientUnits="userSpaceOnUse"/><linearGradient xlink:href="#o" id="E" x1="486.803" x2="468.735" y1="21.363" y2="30.636" gradientTransform="rotate(56.422 213.901 -367.4)scale(.92448)" gradientUnits="userSpaceOnUse"/><linearGradient xlink:href="#p" id="D" x1="474.144" x2="439.052" y1="32.602" y2="35.709" gradientTransform="rotate(56.422 213.901 -367.4)scale(.92448)" gradientUnits="userSpaceOnUse"/><linearGradient xlink:href="#q" id="H" x1="445.922" x2="454.645" y1="-2.345" y2="-12.736" gradientTransform="rotate(56.422 213.901 -367.4)scale(.92448)" gradientUnits="userSpaceOnUse"/></defs><path fill="#2c292a" d="M62.5 32A30.5 30.5 0 0 1 32 62.5 30.5 30.5 0 0 1 1.5 32 30.5 30.5 0 0 1 32 1.5 30.5 30.5 0 0 1 62.5 32"/><g stroke-width=".661"><path fill="url(#r)" d="m20.735 28.554-7.412-7.4" overflow="visible" transform="matrix(1.51205 0 0 1.51197 .017 .018)"/><g stroke-width=".737"><path fill="url(#s)" d="m21.168 13.23.394.393c2.493.046 4.909 1.42 6.225 3.539a7.6 7.6 0 0 1 1.161 3.59l-1.427 1.428 1.491 1.491 1.296-1.296h5.213v-.39h-5.213l-.939-.94c-.04-1.83-.705-3.651-1.928-5.022-1.558-1.782-3.916-2.796-6.273-2.793m15.55 6.786-.562 1.292.337.17.225-.451 1.517 1.069-1.35 1.236h-.11c-.1-.185-.618-.608-.53-.108.068.377.354.748.473 1.12.333-.294.477-.777.806-1.098.663-.65 1.474-.823 2.342-1.038v-.056c-.882-.14-1.788-.466-2.412-1.126-.286-.304-.42-.747-.736-1.01m-7.705 1.17.994.994-.995.994-.994-.994z" overflow="visible" transform="matrix(1.35764 0 0 1.35758 3.284 3.284)"/><path fill="#b997f3" d="M41.178 50.124a1.06 1.06 0 0 1-1.059 1.06 1.06 1.06 0 0 1-1.059-1.058 1.06 1.06 0 0 1 1.058-1.06 1.06 1.06 0 0 1 1.06 1.057"/><path fill="#c9c7d3" d="M17.13 21.603a.33.33 0 0 0 .17.007c.16-.04.19-.206.102-.326-.395-.54-.906-.785-1.138-1.478-.456-1.362.204-2.76 1.58-3.218.775-.258 1.722-.057 2.272.57.81.921.613 2.441-.56 2.96-1.218.54-2.934-.972-1.683-2.005.522-.432 1.307-.308 1.486.403.042.171-.17 1.017.247.865.324-.117.324-.766.25-1.024-.178-.615-.814-1.015-1.44-.987-1.084.05-1.652 1.241-1.314 2.191.277.78 1.075 1.238 1.88 1.21 1.603-.058 2.552-1.865 1.94-3.27-.494-1.134-1.797-1.66-2.972-1.457-1.645.285-2.65 2.085-2.226 3.654.165.617.48 1.17.958 1.597.113.1.278.258.448.308"/><g stroke-width="1.414"><path fill="url(#t)" d="M407.03 5.704a1 1 0 0 0-.12 0c-.867.044-1.31 1.274-1.243 2.287.4 3.591 5.134 3.662 6.95 1.086-1.203.347-2.24.764-3.415-.008-1.819-1.418-.993-3.31-2.171-3.365" transform="matrix(.70747 0 0 .70743 -256.284 29.121)"/><path fill="url(#u)" d="M403.585 2.873a3 3 0 0 0-.387 0c-3.592.402-3.663 5.135-1.087 6.95-.346-1.202-.763-2.239.008-3.413 1.464-1.878 3.433-.937 3.365-2.293-.038-.758-.985-1.192-1.9-1.244z" transform="matrix(.70747 0 0 .70743 -256.284 29.121)"/><path fill="url(#v)" d="M411.87-1.428c.346 1.203.764 2.24-.008 3.415-1.464 1.877-3.433.937-3.365 2.292.044.867 1.274 1.31 2.287 1.243 3.591-.4 3.662-5.134 1.086-6.95" transform="matrix(.70747 0 0 .70743 -256.284 29.121)"/><path fill="url(#w)" d="M404.817-2.47c-1.305.041-2.657.662-3.452 1.789 1.203-.346 2.24-.764 3.415.008 1.877 1.464.936 3.433 2.292 3.365.866-.043 1.31-1.274 1.243-2.287-.225-2.02-1.822-2.926-3.498-2.874" transform="matrix(.70747 0 0 .70743 -256.284 29.121)"/></g><path fill="url(#x)" d="m17.906 5.918 1.293.562.169-.337-.45-.225L19.986 4.4l1.236 1.35v.112c-.184.1-.607.617-.108.528.377-.068.75-.353 1.12-.472-.294-.334-.775-.478-1.098-.806-.65-.663-.822-1.474-1.038-2.342h-.055c-.14.882-.466 1.787-1.126 2.411-.304.287-.747.42-1.01.737m.672 7.706 1.49 1.49 1.493-1.49-1.296-1.295V7.115h-.39v5.214zm.497 0 .994-.995.994.996-.993.994z" transform="matrix(1.35764 0 0 1.35758 3.284 3.284)"/><path fill="url(#y)" d="M30.336 11.461c.136.367-.063.814-.444.998-.38.184-.8.034-.935-.333a.8.8 0 0 1 .145-.76c-1.801-2.49-4.833-3.205-7.861-3.44l.057-.46c3.124.257 6.246 1.06 8.13 3.649.375-.165.776-.012.908.346" transform="matrix(1.35764 0 0 1.35758 3.284 3.284)"/><path fill="url(#z)" d="M12.903 20.837c.01 4.199 3.103 8.084 7.812 8.196l.946.947v5.212h.39v-5.213l1.296-1.295-1.491-1.49-1.426 1.425a7.604 7.604 0 0 1-7.13-7.387Zm8.954 6.853.993.994-.994.993-.994-.993zm-.872 8.137-1.293.562c.263.317.707.45 1.01.737.661.623.986 1.529 1.126 2.41h.056c.217-.866.389-1.678 1.038-2.34.323-.329.804-.472 1.098-.807-.372-.118-.743-.405-1.12-.471-.499-.09-.076.428.108.527v.112l-1.235 1.35-1.07-1.518.45-.225z" overflow="visible" transform="matrix(1.35764 0 0 1.35758 3.284 3.284)"/><path fill="url(#B)" d="m5.595 17.578.562 1.292-.338.17-.225-.45-1.517 1.068 1.35 1.236h.112c.1-.185.617-.608.528-.108-.068.376-.355.749-.472 1.12-.335-.295-.478-.775-.807-1.098-.662-.65-1.474-.823-2.34-1.038v-.056c.881-.14 1.786-.466 2.41-1.126.287-.304.419-.748.736-1.01m7.705.673 1.49 1.49-1.49 1.492-1.295-1.296H6.79v-.391h5.213zm0 .496-.994.994.994.995.995-.994z" transform="matrix(1.35764 0 0 1.35758 3.284 3.284)"/><path fill="url(#C)" d="M11.798 30.865c-.123-.371.092-.811.478-.981.387-.17.8-.008.925.365a.8.8 0 0 1-.171.753c1.715 2.55 4.72 3.368 7.738 3.706l-.072.458c-3.113-.363-6.207-1.272-8-3.924-.38.152-.777-.014-.897-.377" transform="matrix(1.35764 0 0 1.35758 3.284 3.284)"/><path fill="#9892b0" d="M43.696 42.58a.33.33 0 0 1 .17-.006c.16.04.19.206.102.325-.395.54-.906.785-1.138 1.48-.456 1.36.204 2.76 1.58 3.216.776.258 1.722.057 2.272-.569.81-.92.614-2.442-.558-2.96-1.218-.54-2.935.972-1.684 2.005.522.431 1.307.308 1.486-.404.042-.17-.17-1.016.247-.864.323.116.323.765.248 1.023-.176.615-.813 1.016-1.439.987-1.083-.05-1.652-1.24-1.314-2.19.277-.78 1.075-1.239 1.882-1.21 1.602.058 2.552 1.865 1.938 3.271-.494 1.133-1.797 1.66-2.972 1.456-1.644-.285-2.65-2.086-2.226-3.655a3.23 3.23 0 0 1 .958-1.596c.113-.1.28-.258.448-.309"/><path fill="#bebcca" d="M25.238 14.261a1.06 1.06 0 0 1-1.059 1.06 1.06 1.06 0 0 1-1.059-1.058 1.06 1.06 0 0 1 1.058-1.06 1.06 1.06 0 0 1 1.06 1.057"/></g><path fill="url(#D)" d="m1.924 23.37-.486.055a19.8 19.8 0 0 0 3.184 8.701 19.76 19.76 0 0 0 6.781 6.31l.24-.425a19.3 19.3 0 0 1-6.614-6.155 19.3 19.3 0 0 1-3.105-8.485" overflow="visible" transform="matrix(1.51205 0 0 1.51197 .017 .018)"/><path fill="url(#E)" d="M21.853 40.493a19.45 19.45 0 0 1-8.858-1.79l-.205.444a20 20 0 0 0 9.08 1.835z" overflow="visible" transform="matrix(1.51205 0 0 1.51197 .017 .018)"/><path fill="#f0eff4" d="m5.465 19.672-.67-.31a30.15 30.15 0 0 0-2.777 13.73l.742-.027a29.41 29.408 0 0 1 2.705-13.393" overflow="visible"/><path fill="url(#F)" d="m38.435 30.901-.426-.24a19.3 19.3 0 0 1-6.156 6.613 19.3 19.3 0 0 1-8.484 3.106l.056.485a19.8 19.8 0 0 0 8.7-3.182 19.76 19.76 0 0 0 6.31-6.782" overflow="visible" transform="matrix(1.51205 0 0 1.51197 .017 .018)"/><path fill="#e6e5ec" d="M28.564 2.196A29.878 29.877 0 0 0 15.41 7.011a29.878 29.877 0 0 0-9.544 10.252l.646.364a29.137 29.136 0 0 1 9.307-10 29.137 29.136 0 0 1 12.828-4.694z" overflow="visible"/><path fill="url(#G)" d="m40.981 20.434-.49.017a19.45 19.45 0 0 1-1.79 8.857l.445.206a20 20 0 0 0 1.835-9.081" overflow="visible" transform="matrix(1.51205 0 0 1.51197 .017 .018)"/><path fill="url(#H)" d="M29.513 3.158a20 20 0 0 0-9.081-1.835l.016.49a19.45 19.45 0 0 1 8.858 1.79z" overflow="visible" transform="matrix(1.51205 0 0 1.51197 .017 .018)"/><path fill="url(#I)" d="M37.68 10.18a19.8 19.8 0 0 0-6.78-6.312l-.239.426a19.3 19.3 0 0 1 6.613 6.157 19.25 19.25 0 0 1 3.105 8.484l.485-.055a19.8 19.8 0 0 0-3.182-8.7" overflow="visible" transform="matrix(1.51205 0 0 1.51197 .017 .018)"/></g></svg>